<?xml version="1.0" standalone="no"?><!DOCTYPE svg PUBLIC "-//W3C//DTD SVG 1.1//EN" "http://www.w3.org/Graphics/SVG/1.1/DTD/svg11.dtd"><svg t="1638788619072" class="icon" viewBox="0 0 1024 1024" version="1.1" xmlns="http://www.w3.org/2000/svg" p-id="3144" xmlns:xlink="http://www.w3.org/1999/xlink" width="200" height="200"><defs><style type="text/css"></style></defs><path d="M211.53 172.61L642.47 64.88c59.79-14.95 117.72 30.28 117.72 91.91v672.23c0 73.44-59.54 132.98-132.98 132.98H231.34c-73.44 0-132.98-59.54-132.98-132.98V317.56c0-68.56 46.66-128.32 113.17-144.95z" fill="#1AADF9" p-id="3145"></path><path d="M842.7 341.39l-186.29-60.54c-63.11-20.51-127.86 26.53-127.86 92.89v468.22c0 66.3 53.75 120.05 120.05 120.05h156.99c66.3 0 120.05-53.75 120.05-120.05v-386.4c0-52.01-33.49-98.1-82.94-114.17z" fill="#39E2A0" p-id="3146"></path><path d="M760.18 314.74v514.24c0 69.49-53.61 126.74-121.77 132.36-61.88-4.96-109.87-56.59-109.87-119.46V373.64c0-66.18 64.86-113.17 127.73-92.65l103.91 33.75z" fill="#0C2E97" p-id="3147"></path><path d="M263.82 422.2h-33.09c-18.28 0-33.09-14.82-33.09-33.09v-33.09c0-18.28 14.82-33.09 33.09-33.09h33.09c18.28 0 33.09 14.82 33.09 33.09v33.09c0 18.27-14.82 33.09-33.09 33.09zM263.82 558.7h-33.09c-18.28 0-33.09-14.82-33.09-33.09v-33.09c0-18.28 14.82-33.09 33.09-33.09h33.09c18.28 0 33.09 14.82 33.09 33.09v33.09c0 18.28-14.82 33.09-33.09 33.09z" fill="#FCFFFC" p-id="3148"></path></svg>