<?xml version="1.0" standalone="no"?><!DOCTYPE svg PUBLIC "-//W3C//DTD SVG 1.1//EN" "http://www.w3.org/Graphics/SVG/1.1/DTD/svg11.dtd"><svg t="1637468192905" class="icon" viewBox="0 0 1024 1024" version="1.1" xmlns="http://www.w3.org/2000/svg" p-id="7255" xmlns:xlink="http://www.w3.org/1999/xlink" width="200" height="200"><defs><style type="text/css"></style></defs><path d="M624.5 879.16H142.36C97.98 879.16 62 843.18 62 798.8V509.51c0-44.38 35.98-80.36 80.36-80.36H624.5c44.38 0 80.36 35.98 80.36 80.36V798.8c0 44.38-35.98 80.36-80.36 80.36z" fill="#39E2A0" p-id="7256"></path><path d="M774.01 684.26l124.73 101.39c25.35 20.61 63.26 2.57 63.26-30.1V552.76c0-32.67-37.91-50.71-63.26-30.1l-124.73 101.4c-19.09 15.52-19.09 44.67 0 60.2z" fill="#4381F1" p-id="7257"></path><path d="M254.86 273.42m-128.57 0a128.57 128.57 0 1 0 257.14 0 128.57 128.57 0 1 0-257.14 0Z" fill="#11BB82" p-id="7258"></path><path d="M528.07 321.63m-80.36 0a80.36 80.36 0 1 0 160.72 0 80.36 80.36 0 1 0-160.72 0Z" fill="#1AADF9" p-id="7259"></path><path d="M319.14 659.13m-128.57 0a128.57 128.57 0 1 0 257.14 0 128.57 128.57 0 1 0-257.14 0Z" fill="#12926E" p-id="7260"></path><path d="M319.14 659.13m-64.29 0a64.29 64.29 0 1 0 128.58 0 64.29 64.29 0 1 0-128.58 0Z" fill="#FFFFFF" p-id="7261"></path></svg>