<?xml version="1.0" standalone="no"?><!DOCTYPE svg PUBLIC "-//W3C//DTD SVG 1.1//EN" "http://www.w3.org/Graphics/SVG/1.1/DTD/svg11.dtd"><svg t="1640348065507" class="icon" viewBox="0 0 1024 1024" version="1.1" xmlns="http://www.w3.org/2000/svg" p-id="3760" xmlns:xlink="http://www.w3.org/1999/xlink" width="200" height="200"><defs><style type="text/css"></style></defs><path d="M848.6 251.4c0-17.8-13.4-32.7-31-34.8-36.6-4.2-92.4-14.2-150.1-38.3-62.9-26.2-111.4-55.6-134.6-70.8a34.85 34.85 0 0 0-38.2 0c-23.3 15.2-71.7 44.5-134.6 70.8-57.7 24.1-113.5 34.1-150.3 38.3-17.7 2-31 17-31 34.8v359.4c0 34.6 12.6 72.2 37.4 111.7 21.5 34.2 51.9 69 88 100.7 72.1 63.4 154.4 104.3 209.5 104.3 48.4 0 131.3-33.1 207.6-106.9 39-35.1 68-67.3 88.8-98.4 25.7-38.5 38.8-76 38.8-111.4l-0.3-359.4zM358.9 504.7c5.9-5.9 15.4-5.9 21.2 0l85.5 85.4 181.7-181.7c5.9-5.9 15.4-5.9 21.2 0 5.9 5.9 5.9 15.4 0 21.2L476.3 621.9c-2.9 2.9-6.8 4.4-10.6 4.4s-7.7-1.5-10.6-4.4l-96.1-96c-5.9-5.8-5.9-15.3-0.1-21.2zM701 798.5l-0.4 0.4c-48.1 46.6-99.1 75.8-139.6 89.5 29.6-14.6 62.6-36.8 95.1-68.3 59.5-53.6 109-114.2 109-176.4l-0.2-319c0-9-6.8-16.6-15.7-17.6-32.1-3.7-83.6-12.7-136.8-35-55.5-23.1-98.3-48.8-121.6-63.9-5.9-3.8-13.5-3.8-19.4 0-23.3 15.2-66.1 40.8-121.6 63.9-53.2 22.2-104.6 31.3-136.9 34.9-1.4 0.2-2.8 0.5-4.1 1v-56.6c0-2.5 1.9-4.7 4.4-5 38.6-4.4 97.5-15 158.4-40.4 61.8-25.8 109.9-54.1 139.4-73.3 0.8-0.5 1.8-0.8 2.7-0.8s1.9 0.3 2.7 0.8c29.5 19.2 77.6 47.6 139.5 73.3 61 25.5 119.7 36.1 158.3 40.5 2.5 0.3 4.4 2.4 4.4 5l0.2 359.5c0 54.7-38.6 116.1-117.8 187.5z" fill="#2680F0" p-id="3761"></path><path d="M465.7 626.3c3.8 0 7.7-1.5 10.6-4.4l192.3-192.3c5.9-5.9 5.9-15.4 0-21.2-5.9-5.9-15.4-5.9-21.2 0L465.7 590.1l-85.5-85.4c-5.9-5.9-15.4-5.8-21.2 0-5.9 5.9-5.8 15.4 0 21.2l96.1 96c2.9 2.9 6.7 4.4 10.6 4.4z" fill="#FFFFFF" p-id="3762"></path></svg>